<svg width="48" height="48" viewBox="0 0 48 48" fill="none" xmlns="http://www.w3.org/2000/svg">
<path fill-rule="evenodd" clip-rule="evenodd" d="M37.7504 21.2054H24.2961C24.2961 22.6046 24.2961 25.403 24.2875 26.8023H32.0839C31.7851 28.2015 30.7259 30.1604 29.2292 31.1468C29.2278 31.1454 29.2264 31.1552 29.2235 31.1538C27.2337 32.4677 24.6077 32.7657 22.6579 32.3739C19.6016 31.7667 17.1829 29.5503 16.2009 26.7351C16.2066 26.7309 16.2109 26.6917 16.2152 26.6889C15.6005 24.9427 15.6005 22.6046 16.2152 21.2054H16.2137C17.0057 18.6337 19.4973 16.2872 22.5578 15.6449C25.0194 15.123 27.7969 15.6883 29.8396 17.5996C30.1112 17.3338 33.5992 13.9281 33.8608 13.6511C26.882 7.33082 15.7077 9.55417 11.5265 17.7158H11.525C11.525 17.7158 11.5265 17.7158 11.5179 17.7312C9.44941 21.7399 9.53518 26.4637 11.5322 30.2807C11.5265 30.2849 11.5222 30.2877 11.5179 30.2919C13.3276 33.8039 16.6211 36.4974 20.5894 37.523C24.805 38.6284 30.1698 37.8728 33.7636 34.6225C33.765 34.6239 33.7664 34.6253 33.7678 34.6267C36.8127 31.8842 38.7082 27.2122 37.7504 21.2054Z" fill="#202124"/>
</svg>
