<svg width="48" height="48" viewBox="0 0 48 48" fill="none" xmlns="http://www.w3.org/2000/svg">
<path fill-rule="evenodd" clip-rule="evenodd" d="M39.9998 38.0005H33.846V26.7939C33.846 23.7197 32.5429 22.0049 30.206 22.0049C27.6629 22.0049 26.1537 23.7918 26.1537 26.7939V38.0005H19.9998V17.1854H26.1537V19.5263C26.1537 19.5263 28.0844 16.0005 32.4352 16.0005C36.7875 16.0005 39.9998 18.7641 39.9998 24.4835C39.9998 30.2012 39.9998 38.0005 39.9998 38.0005ZM11.0004 12C9.34278 12 7.99976 10.6564 7.99976 8.99939C7.99976 7.34363 9.34278 6 11.0004 6C12.6567 6 13.9998 7.34363 13.9998 8.99939C14.001 10.6564 12.6567 12 11.0004 12ZM7.99982 38H13.9998V18H7.99982V38Z" fill="#202124"/>
</svg>
