<svg width="48" height="33" viewBox="0 0 48 33" fill="none" xmlns="http://www.w3.org/2000/svg">
<path d="M37.6 32.6035H32.28C32.1883 32.6139 32.0954 32.5957 32.0159 32.5516C31.9363 32.5075 31.8745 32.4401 31.84 32.3597C27.56 24.9435 23.2733 17.5274 18.98 10.1112C18.9272 9.99773 18.8601 9.89065 18.78 9.79228L8.26 28.0075H24.1C24.2172 27.9988 24.3344 28.0249 24.4349 28.0822C24.5354 28.1394 24.6142 28.2249 24.66 28.3264C25.46 29.7521 26.28 31.1591 27.12 32.6035H0L18.8 0.09375L37.6 32.6035Z" fill="#202124"/>
<path d="M47.9999 0L47.0199 1.87593C44.3532 6.64078 41.6466 11.4056 38.8999 16.1705C38.8517 16.2403 38.826 16.3218 38.826 16.405C38.826 16.4882 38.8517 16.5696 38.8999 16.6395L47.8399 32.3785L47.9799 32.6786H42.6799C42.5884 32.6868 42.4966 32.6651 42.4201 32.6173C42.3437 32.5695 42.2871 32.4984 42.2599 32.416C39.2999 27.1634 36.3199 21.9046 33.3199 16.6395C33.2562 16.5543 33.222 16.4527 33.222 16.3487C33.222 16.2446 33.2562 16.1431 33.3199 16.0579L42.2799 0.26263C42.3101 0.196577 42.3567 0.138267 42.4159 0.0925766C42.475 0.0468861 42.545 0.0151425 42.6199 0L47.8399 0H47.9999Z" fill="#202124"/>
</svg>
