<svg width="48" height="48" viewBox="0 0 48 48" fill="none" xmlns="http://www.w3.org/2000/svg">
<path fill-rule="evenodd" clip-rule="evenodd" d="M18.0638 38C30.139 38 36.7438 27.2264 36.7438 17.8846C36.7438 17.5779 36.7438 17.2729 36.7246 16.9697C38.0094 15.9704 39.1182 14.7298 39.9998 13.3101C38.803 13.8821 37.531 14.2577 36.2302 14.4232C37.5998 13.5393 38.6254 12.1506 39.1166 10.5121C37.827 11.3356 36.4174 11.9163 34.947 12.2281C32.4606 9.3818 28.3022 9.24396 25.6574 11.9214C23.9534 13.6478 23.2286 16.2219 23.7582 18.6771C18.4798 18.3911 13.5614 15.7067 10.227 11.2908C8.48456 14.5214 9.37576 18.653 12.2606 20.7274C11.2158 20.6947 10.1934 20.3915 9.27976 19.8436V19.9331C9.28136 23.2981 11.4846 26.1961 14.547 26.8629C13.5806 27.1471 12.5662 27.1885 11.5838 26.9835C12.443 29.8642 14.9086 31.837 17.7166 31.8939C15.3918 33.8615 12.5198 34.9297 9.56296 34.9263C9.04136 34.9245 8.51976 34.8918 7.99976 34.8246C11.003 36.899 14.4958 38 18.0638 37.9948" fill="#202124"/>
</svg>
